<svg width="1440" height="203" viewBox="0 0 1440 203" fill="none" xmlns="http://www.w3.org/2000/svg">
<path d="M0 3L341.5 3C363.591 3 381.5 20.9086 381.5 43V86C381.5 103.673 395.827 118 413.5 118H779.587H1026.5C1044.17 118 1058.5 103.673 1058.5 86V43C1058.5 20.9086 1076.41 3 1098.5 3L1440 3" stroke="#2D6DEC" stroke-width="5"/>
<path d="M0 31H341.5C363.591 31 381.5 48.9086 381.5 71V114C381.5 131.673 395.827 146 413.5 146H779.546H1026.5C1044.17 146 1058.5 131.673 1058.5 114V71C1058.5 48.9086 1076.41 31 1098.5 31L1440 31" stroke="#FEE181" stroke-width="5"/>
<path d="M0 57H47.3074H341.5C363.591 57 381.5 74.9086 381.5 97V140C381.5 157.673 395.827 172 413.5 172H779.587H1026.5C1044.17 172 1058.5 157.673 1058.5 140V97C1058.5 74.9086 1076.41 57 1098.5 57L1440 57" stroke="#E866DC" stroke-width="5"/>
<path d="M1 85H341.5C363.591 85 381.5 102.909 381.5 125V168C381.5 185.673 395.827 200 413.5 200H779.816H1026.5C1044.17 200 1058.5 185.673 1058.5 168V125C1058.5 102.909 1076.41 85 1098.5 85L1440 85" stroke="#2CABE0" stroke-width="5"/>
</svg>
