<svg max-width="2085" max-height="200" viewBox="0 0 2085 200" fill="none" xmlns="http://www.w3.org/2000/svg">
<path d="M943.983 119V62.3H979.664V71.21H953.541V84.9395H973.994V93.8495H953.541V110.09H980.433V119H943.983ZM1003.64 119L983.428 62.3H993.027L1009.31 108.632H1007.12L1023.48 62.3H1033.08L1012.83 119H1003.64ZM1039.46 119V62.3H1075.14V71.21H1049.02V84.9395H1069.47V93.8495H1049.02V110.09H1075.91V119H1039.46ZM1085.1 119V62.3H1094.62L1120.21 101.018V62.3H1129.65V119H1121.83L1094.5 77.9735V119H1085.1ZM1153.39 119V71.21H1137.19V62.3H1179.02V71.21H1162.78V119H1153.39ZM1202.95 120.134C1200.63 120.134 1198.27 119.932 1195.86 119.527C1193.46 119.122 1191.23 118.622 1189.18 118.028C1187.15 117.407 1185.51 116.786 1184.24 116.165L1185.41 106.202C1187.14 107.039 1189.03 107.849 1191.08 108.632C1193.14 109.388 1195.28 110.022 1197.52 110.535C1199.79 111.021 1202.07 111.264 1204.37 111.264C1207.45 111.264 1209.9 110.684 1211.74 109.523C1213.6 108.335 1214.53 106.526 1214.53 104.096C1214.53 102.233 1214.03 100.721 1213.03 99.56C1212.04 98.399 1210.52 97.3865 1208.5 96.5225C1206.47 95.6315 1203.91 94.673 1200.8 93.647C1197.75 92.648 1194.98 91.5005 1192.5 90.2045C1190.02 88.8815 1188.03 87.1805 1186.55 85.1015C1185.09 83.0225 1184.36 80.336 1184.36 77.042C1184.36 73.964 1185.13 71.2235 1186.67 68.8205C1188.21 66.4175 1190.5 64.541 1193.55 63.191C1196.6 61.841 1200.37 61.166 1204.85 61.166C1208.42 61.166 1211.77 61.5575 1214.9 62.3405C1218.03 63.1235 1220.66 63.974 1222.79 64.892L1221.82 74.612C1218.69 73.046 1215.72 71.885 1212.91 71.129C1210.13 70.373 1207.27 69.995 1204.33 69.995C1201.19 69.995 1198.71 70.535 1196.87 71.615C1195.04 72.695 1194.12 74.3825 1194.12 76.6775C1194.12 78.3785 1194.59 79.7555 1195.54 80.8085C1196.48 81.8615 1197.83 82.766 1199.59 83.522C1201.37 84.278 1203.54 85.0475 1206.11 85.8305C1210.16 87.0995 1213.59 88.5035 1216.4 90.0425C1219.2 91.5815 1221.32 93.458 1222.75 95.672C1224.21 97.886 1224.94 100.626 1224.94 103.893C1224.94 105.783 1224.62 107.7 1223.97 109.644C1223.32 111.561 1222.17 113.316 1220.53 114.909C1218.91 116.475 1216.67 117.744 1213.8 118.716C1210.94 119.662 1207.32 120.134 1202.95 120.134Z" fill="white"/>
<path d="M0 3L700.615 3C722.706 3 740.615 20.9086 740.615 43V165C740.615 182.673 754.942 197 772.615 197H1102.59H1381.16C1398.83 197 1413.16 182.673 1413.16 165V43C1413.16 20.9086 1431.07 3 1453.16 3L2085 3" stroke="#2D6DEC" stroke-width="5"/>
<path d="M0 28H700.615C722.706 28 740.615 45.9086 740.615 68V165C740.615 182.673 754.942 197 772.615 197H1102.59H1381.16C1398.83 197 1413.16 182.673 1413.16 165V68C1413.16 45.9086 1431.07 28 1453.16 28H2085" stroke="#FEE181" stroke-width="5"/>
<path d="M0 54H700.615C722.706 54 740.615 71.9086 740.615 94V165C740.615 182.673 754.942 197 772.615 197H1102.59H1381.16C1398.83 197 1413.16 182.673 1413.16 165V94C1413.16 71.9086 1431.07 54 1453.16 54H2085" stroke="#E866DC" stroke-width="5"/>
<path d="M0 82H700.615C722.706 82 740.615 99.9086 740.615 122V165C740.615 182.673 754.942 197 772.615 197H1102.59H1381.16C1398.83 197 1413.16 182.673 1413.16 165V122C1413.16 99.9086 1431.07 82 1453.16 82H2085" stroke="#2CABE0" stroke-width="5"/>
</svg>
